<svg width="320" height="320" viewBox="0 0 320 320" fill="none" xmlns="http://www.w3.org/2000/svg">
<rect width="150" height="150" rx="32" fill="white"/>
<rect x="170" width="150" height="150" rx="32" fill="white"/>
<path d="M87 202C87 184.327 101.327 170 119 170H205C222.673 170 237 184.327 237 202V288C237 305.673 222.673 320 205 320H119C101.327 320 87 305.673 87 288V202Z" fill="white"/>
<path d="M45 113V104.667H105V113H45ZM75 96.3333C67.7857 96.3333 62.1786 94.1458 58.1786 89.7708C54.1786 85.3958 52.1786 79.5972 52.1786 72.375V38H63.2143V73C63.2143 76.8889 64.2143 80.0486 66.2143 82.4792C68.2143 84.9097 71.1429 86.125 75 86.125C78.8571 86.125 81.7857 84.9097 83.7857 82.4792C85.7857 80.0486 86.7857 76.8889 86.7857 73V38H97.8214V72.375C97.8214 79.5972 95.8214 85.3958 91.8214 89.7708C87.8214 94.1458 82.2143 96.3333 75 96.3333Z" fill="black"/>
<path d="M212 113V99.6071H232L247 51.3929H227V38H277V51.3929H259.5L244.5 99.6071H262V113H212Z" fill="black"/>
<path d="M132 280V210H163.875C170.125 210 175.894 211.667 181.183 215C186.471 218.333 189.115 222.958 189.115 228.875C189.115 233.125 188.01 236.396 185.798 238.688C183.587 240.979 181.519 242.625 179.596 243.625C182 244.542 184.668 246.25 187.601 248.75C190.534 251.25 192 255 192 260C192 267.417 188.875 272.604 182.625 275.562C176.375 278.521 170.51 280 165.029 280H132ZM149.452 266H164.452C169.067 266 171.88 264.979 172.889 262.938C173.899 260.896 174.404 259.417 174.404 258.5C174.404 257.583 173.899 256.104 172.889 254.062C171.88 252.021 168.923 251 164.019 251H149.452V266ZM149.452 237.5H162.865C166.038 237.5 168.346 236.792 169.788 235.375C171.231 233.958 171.952 232.375 171.952 230.625C171.952 228.625 171.135 227 169.5 225.75C167.865 224.5 165.75 223.875 163.154 223.875H149.452V237.5Z" fill="black"/>
</svg>
